# xmcd CD database file
#
# Track frame offsets:
#	150
#	45445
#	71075
#	114593
#	161371
#	196079
#	238238
#	254405
#
# Disc length: 3825 seconds
#
# Revision: 0
# Processed by: cddbd v1.5.2PL0 Copyright (c) Steve Scherf et al.
# Submitted via: CDex 1.51
#
DISCID=680eef08
DTITLE=NJPT - Noel Johnston/Paul Tynan Quintet
DYEAR=1999
DGENRE=Jazz
TTITLE0=TGOK
TTITLE1=20 Midgets
TTITLE2=From an Irish Folk Song
TTITLE3=Taken Back
TTITLE4=Scott's sketch book
TTITLE5=Texas Trilogy I - Texas Inbred Crickets
TTITLE6=Texas Trilogy II - Texas Toilet Bag
TTITLE7=Texas Trilogy III - Texas Truck Water
EXTD=YEAR: 1999
EXTT0=
EXTT1=
EXTT2=
EXTT3=
EXTT4=
EXTT5=
EXTT6=
EXTT7=
PLAYORDER=
